<svg xmlns="http://www.w3.org/2000/svg" viewBox="0 0 500 500"><path d="M91 410.15c87.29 45.6 228.81 45.6 316.09 0s87.29-119.53 0-165.13S178.29 199.43 91 245 3.72 364.56 91 410.15z" fill="#f5f5f5"/><path d="M303.32 391.11l-206-118.94c-1.44-.83-1.44-2.17 0-3L218 199.46a5.77 5.77 0 015.2 0l206 119c1.44.82 1.44 2.17 0 3l-120.72 69.7a5.74 5.74 0 01-5.16-.05z" fill="#e6e6e6"/><ellipse cx="94.69" cy="332.89" rx="54.36" ry="25.91" fill="#ebebeb"/><path d="M260.48 219.64c2.54.05 6.74-3.24 7.38-7.32s1.85-7.3 7.66-9.5 9.08-3.2 10.94-8.26-1-10.76-1.81-15.07 3.18-9.33 9-14.07 9.18-9.74 4-12.74-11.64-1.74-17.29 1.89-10.08 8.39-17 7.76-10.83 2.33-12.19 7.78.61 12.36-4.55 14.07v23.15z" fill="#fd0"/><path d="M250 209.2h-.11a.5.5 0 01-.38-.59c5.29-22.9 29.17-48.25 42.07-53.51a.5.5 0 11.38.92c-12.71 5.19-36.25 30.2-41.47 52.81a.51.51 0 01-.49.37z" fill="#fff"/><path d="M263.3 181.83a.5.5 0 01-.49-.42 33.42 33.42 0 00-4.07-11 .51.51 0 01.16-.69.5.5 0 01.69.16 33.77 33.77 0 014.2 11.41.48.48 0 01-.41.57zM259.17 188.79a.51.51 0 01-.49-.37.5.5 0 01.36-.61c7.86-2.08 17.79-.09 18.21 0a.5.5 0 01-.2 1c-.1 0-10.13-2-17.76 0a.25.25 0 01-.12-.02z" fill="#fff"/><g fill="#ebebeb"><path d="M347.55 85.11l3.83 1.47v-8.44c0-6.7 5.34-8.31 11.14-5 5.8 3.35 10.5 11.49 10.5 18.19v1.27a5.63 5.63 0 014.88.75 16.71 16.71 0 017.55 13.09v.56l5.35 3.09a11 11 0 015 8.62c0 3.17-2.22 4.46-5 2.87l-43.25-25a11 11 0 01-5-8.62c.02-3.15 2.25-4.44 5-2.85zM391 87.91l7 4c0-.31-.06-.61-.06-.92V89c0-3.58 2.52-5 5.62-3.24a10.76 10.76 0 013.26 3.24c.51-4.51 4-6.19 8.34-3.71 4.64 2.68 8.41 9.2 8.41 14.56v3a8 8 0 01-.71 3.49l5.77 3.33a6.89 6.89 0 013.12 5.4c0 2-1.4 2.79-3.12 1.8L391 95.11a6.89 6.89 0 01-3.12-5.4c-.04-1.99 1.36-2.79 3.12-1.8z"/></g><g><path fill="#455a64" d="M249.13 90.95l36.48-21.06 8.12 4.69-8.12 14.07-36.48 21.06V90.95z"/><path fill="#37474f" d="M285.61 69.89l-4.07-2.35-36.55 21.11 4.14 2.3 36.48-21.06z"/><path d="M254.42 100.38a2.42 2.42 0 01-1 .18c-.09 0-.12 0-.12-.07a.35.35 0 010-.14l.31-.66a.42.42 0 01.1-.15h.13a2.87 2.87 0 00.8-.13 4.19 4.19 0 00.93-.41 3.78 3.78 0 001-.76 1.4 1.4 0 00.32-.87.48.48 0 00-.12-.38.54.54 0 00-.36-.08 5.89 5.89 0 00-.76.11h-.21a6.26 6.26 0 01-1 .11 1 1 0 01-.66-.21.92.92 0 01-.26-.74 2.79 2.79 0 01.65-1.69 5.72 5.72 0 011.71-1.45 6.26 6.26 0 011.12-.52 1.9 1.9 0 01.82-.1c.07 0 .11 0 .11.1a.24.24 0 010 .12l-.3.66a.55.55 0 01-.09.14.23.23 0 01-.12 0 2.78 2.78 0 00-1.49.48 2.93 2.93 0 00-.89.73 1.36 1.36 0 00-.3.85.4.4 0 00.5.47 6.91 6.91 0 00.78-.12h.24a5.56 5.56 0 011.06-.12.82.82 0 01.6.23 1.08 1.08 0 01.21.75 2.67 2.67 0 01-.61 1.62 5.55 5.55 0 01-1.71 1.45 7.63 7.63 0 01-1.39.6zM259.61 96.66c-.56-.26-.83-.92-.83-2a5.44 5.44 0 01.83-2.93 6.49 6.49 0 012.39-2.21c1-.59 1.81-.76 2.36-.5s.84.92.84 2a5.46 5.46 0 01-.84 2.94 6.51 6.51 0 01-2.36 2.2c-1 .6-1.84.76-2.39.5zm3.86-2.86a4.22 4.22 0 00.52-2.12c0-.8-.17-1.3-.52-1.52s-.84-.13-1.49.25a4 4 0 00-1.51 1.48A4.32 4.32 0 00260 94c0 .8.17 1.3.51 1.52s.85.13 1.51-.25a3.85 3.85 0 001.45-1.47zM267.4 92.74a1.17 1.17 0 01-1-.24 1.42 1.42 0 01-.35-1.07v-3.77a.53.53 0 01.08-.31.68.68 0 01.26-.24l.5-.28a.33.33 0 01.27-.08s.08.1.08.22v3.79c0 .49.14.78.43.86a1.65 1.65 0 001.22-.33 3.64 3.64 0 001.21-1.07 2.3 2.3 0 00.43-1.35v-3.8a.62.62 0 01.08-.31.8.8 0 01.27-.24l.49-.28c.24-.14.36-.1.36.13v3.77a3.37 3.37 0 01-.35 1.48 5.56 5.56 0 01-1 1.41 6.7 6.7 0 01-1.48 1.14 3.94 3.94 0 01-1.5.57zM274.47 88.73c-.06 0-.09-.09-.09-.21v-5.1l-1.64.94c-.12.07-.2.1-.25.07s-.07-.09-.07-.21V84a.56.56 0 01.07-.3.81.81 0 01.25-.23l4.48-2.58a.34.34 0 01.26-.07s.07.1.07.21v.26a.52.52 0 01-.07.29.75.75 0 01-.26.23l-1.64.94v5.11a.61.61 0 01-.08.3.62.62 0 01-.28.24l-.48.29c-.13.04-.22.06-.27.04zM278.36 86.48c-.05 0-.07-.1-.07-.21v-5.68a.62.62 0 01.07-.31.9.9 0 01.27-.23l.5-.29c.12-.07.21-.1.27-.07s.08.09.08.21v2.36l3.07-1.77v-2.36a.62.62 0 01.08-.31.75.75 0 01.28-.24l.48-.28c.13-.08.22-.1.27-.08s.09.1.09.22v5.68a.55.55 0 01-.08.29.78.78 0 01-.28.25l-.48.28c-.13.07-.22.1-.28.07s-.08-.09-.08-.2v-2.42l-3.07 1.78v2.41a.52.52 0 01-.08.3.72.72 0 01-.27.24l-.5.29a.36.36 0 01-.27.07z" fill="#fff"/><path fill="#455a64" d="M244.91 112.03l-36.48-21.06-8.13 4.69 8.13 14.07 36.48 21.06v-18.76z"/><path fill="#37474f" d="M208.43 90.97l4.06-2.34 36.56 21.1-4.14 2.3-36.48-21.06z"/><path d="M211.88 106a.58.58 0 01-.12-.25l-1.7-6.89a.22.22 0 010-.09c0-.09.06-.1.2 0l.88.51a.88.88 0 01.22.17.52.52 0 01.09.2l1.08 4.74 1.3-2.88a.11.11 0 01.1-.09s.1 0 .2.07l.5.29a.56.56 0 01.2.16.69.69 0 01.1.21l1.31 4.38 1.06-3.5c0-.06.05-.09.1-.09a.39.39 0 01.22.08l.88.51c.14.08.21.17.21.26a.17.17 0 010 .08l-1.71 4.84c0 .07-.07.11-.12.11a.48.48 0 01-.24-.08l-.58-.34a.92.92 0 01-.23-.18.79.79 0 01-.13-.26l-1.3-4.5-1.3 3c0 .07-.07.11-.12.11a.6.6 0 01-.24-.08l-.59-.35a.69.69 0 01-.27-.14zM219.86 110.53a.56.56 0 01-.09-.31v-5.68q0-.18.09-.21a.5.5 0 01.31.1l4.49 2.59a.89.89 0 01.3.25.56.56 0 01.08.3v.25c0 .12 0 .19-.08.21s-.15 0-.3-.09l-3.51-2v1.82l2.55 1.47a.88.88 0 01.3.25.49.49 0 01.09.3v.22c0 .11 0 .18-.09.2a.45.45 0 01-.3-.09l-2.55-1.47v1.82l3.5 2a.83.83 0 01.31.26.56.56 0 01.08.3v.25c0 .12 0 .18-.08.2a.58.58 0 01-.31-.1l-4.48-2.59a.83.83 0 01-.31-.25zM227.11 114.79a7.54 7.54 0 01-1.18-1.09c-.1-.11-.14-.18-.14-.23a.1.1 0 010-.09l.36-.28a.09.09 0 01.11 0 .52.52 0 01.15.13 7.69 7.69 0 00.92.86 8.69 8.69 0 001.07.75 2.78 2.78 0 001.11.43c.25 0 .37-.15.37-.47a1 1 0 00-.14-.53 2.5 2.5 0 00-.41-.52q-.27-.28-.87-.84l-.25-.22c-.47-.44-.86-.82-1.16-1.14a5.15 5.15 0 01-.76-1 2.11 2.11 0 01-.31-1.06c0-.57.25-.87.75-.89a4 4 0 012 .68 12 12 0 011.29.87 5.87 5.87 0 01.94.92.42.42 0 01.13.23.08.08 0 010 .08l-.35.29a.1.1 0 01-.1 0 .79.79 0 01-.15-.14 7 7 0 00-1.71-1.38 2.2 2.2 0 00-1-.37c-.23 0-.34.17-.34.48a1.07 1.07 0 00.14.55 2.74 2.74 0 00.43.54c.18.19.49.47.91.85l.26.25c.53.48.94.89 1.24 1.21a4.65 4.65 0 01.68 1 2.25 2.25 0 01.25 1c0 .54-.24.83-.7.87a3.8 3.8 0 01-2-.68 14.3 14.3 0 01-1.54-1.06zM234 118.7a.48.48 0 01-.1-.31v-5.11l-1.9-1.09a1 1 0 01-.3-.24.56.56 0 01-.08-.3v-.25c0-.12 0-.19.08-.22s.16 0 .3.1l5.17 3a1 1 0 01.3.25.53.53 0 01.08.31v.25c0 .12 0 .19-.08.2s-.16 0-.3-.1l-1.9-1.09v5.11c0 .11 0 .18-.09.2a.46.46 0 01-.32-.1l-.56-.32a.94.94 0 01-.3-.29z" fill="#fff"/><path d="M249.12 71.49a2.09 2.09 0 00-1.21-1.65 6.48 6.48 0 00-5.85 0 2.09 2.09 0 00-1.21 1.65v220.16h8.29V71.49z" fill="#455a64"/></g><g><path d="M322.17 237.82l-48.75-14.07-50.51-42.62a4.59 4.59 0 00-4.89-.44L97.28 250.4a2 2 0 00-.31 3.43l50.52 42.62 48.75 14.07L249 355.08l54 17.83a7.73 7.73 0 005.45-.56l5.53-3.2 115.21-66.51c1.43-.82 1.32-1.92-.25-2.44l-54-17.82z" fill="#455a64"/><path fill="#455a64" d="M273.42 223.75l-125.93 72.7 48.75 14.07 125.93-72.7-48.75-14.07zM249 355.08l54 17.83a7.68 7.68 0 005.45-.57l120.74-69.7c1.43-.82 1.32-1.92-.25-2.44l-54-17.82z"/><path fill="#e0e0e0" d="M265.29 228.44l-46.2-38.98-109.68 63.32 46.21 38.98 109.67-63.32z"/><path fill="#e0e0e0" d="M314.04 242.51l-109.67 63.32-48.75-14.07 109.67-63.32 48.75 14.07z"/><path fill="#e0e0e0" d="M314.04 242.51l-109.67 63.32-48.75-14.07 109.67-63.32 48.75 14.07z" style="fill:#e0e0e0" opacity=".5"/><path fill="#e0e0e0" d="M366.84 287.07l-109.67 63.32-52.8-44.56 109.67-63.32 52.8 44.56z"/><path fill="#e0e0e0" d="M413.38 302.42L303.7 365.74l-46.53-15.35 109.67-63.32 46.54 15.35z"/><path fill="#e0e0e0" d="M413.38 302.42L303.7 365.74l-46.53-15.35 109.67-63.32 46.54 15.35z" style="fill:#e0e0e0" opacity=".5"/><path fill="#f0f0f0" d="M136.16 275.35l15.4-9.38-24.37-23.46-17.78 10.27 26.75 22.57zM155.62 263.62l-24.37-23.45 36.56-21.19 24.37 23.53-36.56 21.11zM171.87 216.72l24.37 23.45 12.19-7.04-4.06-35.18-32.5 18.77zM212.49 230.79l-4.06-35.18 10.66-6.15 39.6 33.41-46.2 7.92zM169.84 283.56l-12.19-11.73-15.23 8.79 13.2 11.14 14.22-8.2zM161.71 269.48l12.19 11.73 36.52-21.08-12.16-11.75-36.55 21.1zM214.52 257.76l-12.19-11.73 11.16-6.44 23.37-4.11v9.38l-22.34 12.9zM240.92 242.51v-7.75l19.31-3.39-19.31 11.14z"/><path d="M261.24 249.55c-4.49-1.3-10.86-.77-14.22 1.17s-2.46 4.57 2 5.86 10.85.78 14.22-1.17 2.48-4.57-2-5.86zM248 247a13.58 13.58 0 00-2.52 1.11c-3.54 2-3.63 4.7-3.5 5.75a4.89 4.89 0 00.57 1.76l-9.79 5.64-18.28-3.51 22.34-12.9zM240.92 242.51l12.53 2.17 6.42.89 21.67-12.44-16.25-4.69-24.37 14.07zM314 242.51l-30.5 17.61-18.17-2.49c2.95-2 3-4.38 2.9-5.37a5.07 5.07 0 00-.56-1.75l24.67-14.25zM279.87 262.24l-14.57 8.41-24.44-4.65 10.14-5.88.08-.05a25.59 25.59 0 003.44.23 24.43 24.43 0 006.95-.95zM210.42 260.13l-36.52 21.08 18.28 3.52 36.53-21.1-18.29-3.5z" fill="#e6e6e6"/><path fill="#e6e6e6" d="M265.3 270.66l-24.42-4.69-36.53 21.1 24.39 4.69 36.56-21.1zM169.84 283.56l-14.22 8.2 16.25 4.69 16.25-9.38-18.28-3.51zM224.68 294.11l-24.39-4.69-17.59 10.16 21.67 6.25 20.31-11.72z"/><path fill="#f0f0f0" d="M289.67 270.66l13.57 24.99 35.17-20.3-32.49-14.08-16.25 9.39zM224.68 294.11l4.06 7.03-1.27 24.19-23.1-19.5 20.31-11.72zM228.74 291.76l4.06 7.04 50.94-29.41-3.87-7.15-51.13 29.52zM283.54 260.13l4.1 7.01 33-19.06-6.6-5.57-30.5 17.62zM285.61 273l-50.78 29.32-1.31 28.12 3.85 3.24 61.84-35.7-13.6-24.98zM309.98 258.93l13.96-8.06 23.1 19.49-4.56 2.64-32.5-14.07zM243.97 339.25l17.26-9.96 8.13 14.07-12.19 7.03-13.2-11.14zM265.291 326.943l16.247-9.38 8.125 14.073-16.247 9.38zM285.61 315.22l17.49-10.11 7.78 14.27-17.15 9.91-8.12-14.07zM314.88 317.08l-7.76-14.28 35.36-20.42 17.77-.88 6.59 5.57-51.96 30.01zM350.34 273.15l-7.86 4.54 12.67-.49-4.81-4.05z"/><path d="M334.6 324.74c-4.48-1.29-10.85-.77-14.21 1.17s-2.46 4.57 2 5.87 10.85.77 14.22-1.17 2.48-4.61-2.01-5.87zM269.36 343.36l16.25 4.69-12.93 7.46-15.51-5.12 12.19-7.03zM273.42 341.01l16.25 4.69 16.25-9.38-16.25-4.69-16.25 9.38zM293.73 329.29L310 334l5.41-3.13s-2.57-5.74 5-8.14l-9.55-3.32zM314.88 317.08l10 3.6a33.79 33.79 0 018.12 0l29.79-17.19-16.25-4.69zM350.6 296.45l16.25 4.69 15.51-8.95-15.52-5.12-16.24 9.38zM392.7 295.6l-25.85 14.92 20.31 7.04 26.22-15.14-20.68-6.82zM362.79 312.87l-21.36 12.33s2.62 4.07-.73 7.29l14 3.83 28.44-16.41-19.82-6.76M350.6 338.67L336.17 335s-6.95 2.72-12.8.6l-21.52 12.42-4.06 15.75 5.91 1.94zM297.79 350.39l-3.4 12.28-11.37-3.75 14.77-8.53z" fill="#e6e6e6"/><path d="M279.87 312.9a1 1 0 01-.86-.49 1 1 0 01.35-1.37l21.39-12.61-19.85-36.25-18.68-2.94a1 1 0 01-.37-1.84c2.77-1.69 4.16-3.29 4-4.64s-1.72-2.64-4.3-3.64c-3.84-1.48-11.78-1-15.21 1.67a3.81 3.81 0 00-1.11 5.24 1 1 0 01-.32 1.41l-10.3 6.23a1.05 1.05 0 01-.69.13l-21.65-3.88a1.09 1.09 0 01-.53-.28l-21.84-22a1 1 0 010-1.41 1 1 0 011.42 0L213 258l21 3.76 9.18-5.55a5.73 5.73 0 012-7c4-3.08 12.76-3.65 17.16-2 2 .76 5.32 2.46 5.57 5.32.16 1.7-.81 3.4-2.89 5.07l16.7 2.63a1 1 0 01.73.51L303 298.32a1 1 0 01-.37 1.34l-22.22 13.1a1 1 0 01-.54.14z" fill="#fd0"/><path d="M197.22 206.44l-3.42-2c-1.64-1.09-3.9-1-6.41.4-5 2.87-9 10.17-9 16.29v1.4c0 6.12 8.23 12.78 8.23 12.78l3.37 1.91s-2-2.31-1.79-2.78c2.2-4.53 8.21-17.32 8.21-22.32v-1.39a10.84 10.84 0 00-.39-3l.39.22zm-9.83 14.05c-2.49 1.43-4.51.27-4.51-2.6 1.34-.21 4.71-6 4.51-7.81 2.49-1.43 4.5-.27 4.5 2.6a10 10 0 01-4.5 7.81z" fill="#fd0"/><path d="M197.22 206.44l-3.42-2c-1.64-1.09-3.9-1-6.41.4-5 2.87-9 10.17-9 16.29v1.4c0 6.12 8.23 12.78 8.23 12.78l3.37 1.91s-2-2.31-1.79-2.78c2.2-4.53 8.21-17.32 8.21-22.32v-1.39a10.84 10.84 0 00-.39-3l.39.22zm-9.83 14.05c-2.49 1.43-4.51.27-4.51-2.6 1.34-.21 4.71-6 4.51-7.81 2.49-1.43 4.5-.27 4.5 2.6a10 10 0 01-4.5 7.81z" fill="#fd0"/><path d="M197.22 206.44l-3.42-2c-1.64-1.09-3.9-1-6.41.4-5 2.87-9 10.17-9 16.29v1.4c0 6.12 8.23 12.78 8.23 12.78l3.37 1.91s-2-2.31-1.79-2.78c2.2-4.53 8.21-17.32 8.21-22.32v-1.39a10.84 10.84 0 00-.39-3l.39.22zm-9.83 14.05c-2.49 1.43-4.51.27-4.51-2.6 1.34-.21 4.71-6 4.51-7.81 2.49-1.43 4.5-.27 4.5 2.6a10 10 0 01-4.5 7.81z" opacity=".2"/><path d="M200 212.85c0-6.12-4-8.76-9-5.89s-9 10.17-9 16.3v1.39c0 4.72 5.34 10.19 7.8 12.46a1.22 1.22 0 001.92-.36c2.12-4.34 8.3-17.43 8.3-22.5zm-9 9.72c-2.49 1.44-4.5.27-4.5-2.6a10 10 0 014.5-7.81c2.49-1.43 4.51-.27 4.51 2.61a10 10 0 01-4.51 7.8zM286.22 282.44l-3.42-2c-1.64-1.09-3.9-1.05-6.41.4-5 2.87-9 10.17-9 16.29v1.4c0 6.12 8.23 12.78 8.23 12.78l3.37 1.91s-2-2.31-1.79-2.78c2.2-4.53 8.21-17.32 8.21-22.32v-1.39a10.84 10.84 0 00-.39-3l.39.22zm-9.83 14.05c-2.49 1.43-4.51.27-4.51-2.6 1.34-.21 4.71-6 4.51-7.81 2.49-1.43 4.5-.27 4.5 2.6a10 10 0 01-4.5 7.81z" fill="#fd0"/><path d="M286.22 282.44l-3.42-2c-1.64-1.09-3.9-1.05-6.41.4-5 2.87-9 10.17-9 16.29v1.4c0 6.12 8.23 12.78 8.23 12.78l3.37 1.91s-2-2.31-1.79-2.78c2.2-4.53 8.21-17.32 8.21-22.32v-1.39a10.84 10.84 0 00-.39-3l.39.22zm-9.83 14.05c-2.49 1.43-4.51.27-4.51-2.6 1.34-.21 4.71-6 4.51-7.81 2.49-1.43 4.5-.27 4.5 2.6a10 10 0 01-4.5 7.81z" fill="#fd0"/><path d="M286.22 282.44l-3.42-2c-1.64-1.09-3.9-1.05-6.41.4-5 2.87-9 10.17-9 16.29v1.4c0 6.12 8.23 12.78 8.23 12.78l3.37 1.91s-2-2.31-1.79-2.78c2.2-4.53 8.21-17.32 8.21-22.32v-1.39a10.84 10.84 0 00-.39-3l.39.22zm-9.83 14.05c-2.49 1.43-4.51.27-4.51-2.6 1.34-.21 4.71-6 4.51-7.81 2.49-1.43 4.5-.27 4.5 2.6a10 10 0 01-4.5 7.81z" opacity=".2"/><path d="M289 288.85c0-6.12-4-8.76-9-5.89s-9 10.17-9 16.3v1.39c0 4.72 5.34 10.19 7.8 12.46a1.22 1.22 0 001.92-.36c2.12-4.34 8.3-17.43 8.3-22.5zm-9 9.72c-2.49 1.44-4.5.27-4.5-2.6a10 10 0 014.5-7.81c2.49-1.43 4.51-.27 4.51 2.61a10 10 0 01-4.51 7.8z" fill="#fd0"/></g><g><path d="M355.3 165.37l-.22-.13-6.86-3.94a9.49 9.49 0 00-5.36-1.57 16 16 0 00-7.9 2.41c-10.3 5.94-18.64 21-18.64 33.7v2.88c0 12.67 17 26.44 17 26.44l6.93 3.92c-.23-.27-4.17-4.79-3.7-5.74 4.56-9.36 17-35.81 17-46.15v-2.88a22.8 22.8 0 00-.79-6.19l.8.46zm-12.89 33.35c-4.57 2.64-8.36 1.05-9.16-3.5-4.33 1.58-7.61-.91-7.61-6.18 2.77-.44 9.73-12.33 9.32-16.14 4.56-2.64 8.35-1.05 9.15 3.5 4.34-1.58 7.62.91 7.62 6.18 0 5.94-4.17 13.17-9.32 16.14z" fill="#263238"/><path d="M355.3 165.37l-.22-.13c-3.33-1.87-7.78-1.62-12.67 1.2-7.37 4.26-13.75 13.21-16.77 22.6a36.51 36.51 0 00-1.87 11.1V203c0 9.76 11.05 21.08 16.14 25.77a2.4 2.4 0 00.37.28 2.5 2.5 0 003.56-1c4.39-9 17.18-36.06 17.18-46.55v-2.89c.03-6.5-2.17-11.11-5.72-13.24zm-22.05 29.85a10.13 10.13 0 01-.16-1.88c0-5.94 4.17-13.17 9.32-16.14a11.23 11.23 0 011.7-.8c4.34-1.58 7.62.91 7.62 6.18 0 5.94-4.17 13.17-9.32 16.14-4.57 2.64-8.36 1.05-9.16-3.5z" fill="#455a64"/><path d="M345.46 174a13.45 13.45 0 00-2 1c-6.23 3.59-11.27 12.32-11.27 19.5a11.73 11.73 0 00.2 2.28c1 5.5 5.55 7.42 11.07 4.23 6.22-3.59 11.27-12.33 11.27-19.51-.05-6.41-4.02-9.42-9.27-7.5z" fill="#263238"/><path d="M344.19 176.81l1.88 4a.44.44 0 00.62.24l4.23-1.62c.67-.25.93.69.45 1.6l-3.06 5.74a1.88 1.88 0 00-.23 1.1l.72 5.19c.11.83-.59 1.91-1.19 1.84l-3.78-.47a.94.94 0 00-.76.44l-3.78 4.83c-.6.77-1.3.49-1.18-.46l.72-6a.9.9 0 00-.24-.83l-3-2.21c-.49-.35-.22-1.6.45-2.12l4.22-3.26a1.91 1.91 0 00.62-1l1.89-6.19c.23-.96 1.12-1.46 1.42-.82z" fill="#fd0"/><path d="M398.82 190.44l-.22-.13-6.86-3.94a9.49 9.49 0 00-5.36-1.57 16 16 0 00-7.9 2.41c-10.3 5.94-18.64 21-18.64 33.7v2.88c0 12.67 17 26.44 17 26.44l6.93 3.92c-.23-.27-4.17-4.79-3.7-5.74 4.56-9.36 17-35.81 17-46.15v-2.88a22.8 22.8 0 00-.79-6.19l.8.46zm-12.89 33.35c-4.57 2.64-8.36 1.05-9.16-3.5-4.33 1.58-7.61-.91-7.61-6.18 2.77-.44 9.73-12.33 9.32-16.14 4.56-2.64 8.35-1.05 9.15 3.5 4.34-1.58 7.62.91 7.62 6.18 0 5.94-4.17 13.17-9.32 16.14z" fill="#263238"/><path d="M398.82 190.44l-.22-.13c-3.33-1.87-7.78-1.62-12.67 1.2-7.37 4.26-13.75 13.21-16.77 22.6a36.51 36.51 0 00-1.87 11.1v2.89c0 9.76 11 21.08 16.14 25.77a2.4 2.4 0 00.37.28 2.5 2.5 0 003.56-1c4.39-9 17.18-36.06 17.18-46.55v-2.89c.03-6.53-2.17-11.14-5.72-13.27zm-22.05 29.85a10.13 10.13 0 01-.16-1.88c0-5.94 4.17-13.17 9.32-16.14a11.23 11.23 0 011.7-.8c4.34-1.58 7.62.91 7.62 6.18 0 5.94-4.17 13.17-9.32 16.14-4.57 2.64-8.36 1.05-9.16-3.5z" fill="#455a64"/><path d="M389 199.06a13.45 13.45 0 00-2.05 1c-6.23 3.59-11.27 12.33-11.27 19.51a11.62 11.62 0 00.2 2.27c1 5.5 5.55 7.42 11.07 4.23 6.22-3.59 11.27-12.33 11.27-19.51-.02-6.4-3.99-9.41-9.22-7.5z" fill="#263238"/><path fill="#fd0" d="M396.3 206.39l-8.89-2.37-8.9 12.65 2.35-1.36v7.43l5.17-2.98v-4.15l2.75-1.59v4.15l5.17-2.98v-7.44l2.35-1.36z"/><path d="M442.34 215.33l-.22-.13-6.86-3.94a9.49 9.49 0 00-5.36-1.57 16 16 0 00-7.9 2.41c-10.3 5.94-18.64 21-18.64 33.7v2.88c0 12.67 17 26.44 17 26.44l6.93 3.92c-.23-.27-4.17-4.79-3.7-5.74 4.56-9.36 17-35.81 17-46.15v-2.88a22.8 22.8 0 00-.79-6.19l.8.46zm-12.89 33.35c-4.57 2.64-8.36 1-9.16-3.5-4.33 1.58-7.61-.91-7.61-6.18 2.77-.44 9.73-12.33 9.32-16.14 4.56-2.64 8.35-1.05 9.15 3.5 4.34-1.58 7.62.91 7.62 6.18 0 5.94-4.17 13.17-9.32 16.14z" fill="#263238"/><path d="M442.34 215.33l-.22-.13c-3.33-1.87-7.78-1.62-12.67 1.2-7.37 4.26-13.75 13.21-16.77 22.6a36.51 36.51 0 00-1.87 11.1v2.9c0 9.76 11.05 21.08 16.14 25.77a2.4 2.4 0 00.37.28 2.5 2.5 0 003.56-1c4.39-9 17.18-36.06 17.18-46.55v-2.89c.03-6.54-2.17-11.15-5.72-13.28zm-22 29.85a10.13 10.13 0 01-.16-1.88c0-5.94 4.17-13.17 9.32-16.14a11.23 11.23 0 011.7-.8c4.34-1.58 7.62.91 7.62 6.18 0 5.94-4.17 13.17-9.32 16.14-4.62 2.64-8.41 1.05-9.21-3.5z" fill="#455a64"/><path d="M432.5 224a13.36 13.36 0 00-2.05 1c-6.23 3.59-11.27 12.33-11.27 19.51a11.8 11.8 0 00.2 2.28c1 5.5 5.54 7.42 11.07 4.23 6.22-3.59 11.26-12.33 11.26-19.51 0-6.46-3.96-9.51-9.21-7.51z" fill="#263238"/><path d="M430.36 229.62c2.13-1.23 3.86-.23 3.86 2.23a8.53 8.53 0 01-3.86 6.68c-2.13 1.23-3.86.23-3.86-2.23a8.53 8.53 0 013.86-6.68zM423 252c2 .87 4.58.59 7.43-1a22.53 22.53 0 007.43-7.54v-.65c0-4-2.84-5.68-6.34-3.66l-2.19 1.26a14 14 0 00-6.33 11z" fill="#fd0"/></g><g><path d="M89.56 156.12c-7 .34-11.85 2-16.83 7-3.66 3.68-11.55 25.05-8.11 42.32a20 20 0 0028.87 14c9.49-4.84 11.33-19.83 11.06-28.57s-14.99-34.75-14.99-34.75z" fill="#263238"/><path d="M80.94 162.54s-1.88-2.46-6.24-1.09c0 0-4.6 5.54-8.15 16 0 0-1.13 0-.41-3s3.6-10 5.45-12.49 4.46-4.53 17-9.13c11-4 7.48 6 7.48 6z" fill="#37474f"/><path d="M59.57 304.8c-1.47-.76-2.4 1.11-3.73 2.6-.94 1.05-2.39 2.71-2.61 3.91-.32 1.77 1.28 4.55 3 6.08s3.82 2.64 4.46 6 2 5.37 5.43 6.87c3.83 1.65 9 1.12 10.68 0 2.06-1.33.18-2.78-2.7-6.91-3.76-5.38-6.69-9.23-6.69-14.25z" fill="#263238"/><path d="M62.57 300.39l-3.08 4.53a4.34 4.34 0 001 6l.1.06a4.66 4.66 0 005.91-.92l4.82-5.26z" fill="#ffa8a7"/><path d="M120.1 213.42c.2 5.77-.78 27.84-5 38.88a103.71 103.71 0 01-8.76 18c-1.26 2.14-37.4 37.33-37.4 37.33s-6.13-.45-7.11-6.4c0 0 14.81-25.17 18-30.34s14.56-13.08 14.56-13.08l-1-48.4z" fill="#37474f"/><path fill="#ffa8a7" d="M118.978 333.25l-7.645 1.738-2.53-11.126 7.645-1.738z"/><path d="M105.37 232.07a48.49 48.49 0 007-8c5.84-8.07 4.94-15.23 4.94-15.23h-2.39l-35.18 4.63a44.79 44.79 0 00.42 17.29c3.09 15.59 15.63 42.23 15.63 42.23-.18 2.15-1.09 11.2 1 19.22 3.24 12.66 12.07 34.08 12.07 34.08s5.54.79 8.28-2.41c0 0-4.89-43.49-6.2-54.63-1.48-12.11-5.57-37.18-5.57-37.18z" fill="#37474f"/><path d="M118.13 329.47l-.25-1.09c.8.15 4.23 5.84 7.63 8.32 3.73 2.71 7 4.31 8.63 5.53 2.23 1.64-1 5-6.48 5.28a16.22 16.22 0 01-7.52-1.26c-2.39-1.14-3.84-3.27-5.66-5.1-1.33-1.34-3.34-2.32-4.35-3.94-.46-.74-.53-2.55-.48-4.11s.1-3 .59-3l.19.84a9.6 9.6 0 004.64 1c1.29-.03 3.69-.33 3.06-2.47zM109.92 261.82s-3.68-26.17-4.55-29.75c0 0 6.49-2.47 8.49-4.74 0 0-1.43 3.17-6.07 6zM95.78 272.94c-1.57-2.16-5.48-11.89-5.48-11.89l4 12.59c-1 3.77-.92 10-.92 10l2-1.79c.01-1.5.4-8.91.4-8.91z" fill="#263238"/><path d="M116.16 202.5c-5.08-17.14-4-31.64-5-36.09l13.11 18.46A163.56 163.56 0 00127 203c1.5 6.55 3.55 14.72 6 19.8a4.08 4.08 0 002.14 2c2.48 1 3.63 2.31 5.62 3.79 1.56 1.17 2.75 1.32 2.65 1.79a2.22 2.22 0 01-2.63 1.46 15.68 15.68 0 01-3.47-1.18 20.49 20.49 0 004.21 5c3.8 3.32 4.34 5.67-2 6.8-4 .72-7.57-1.2-12.06-9.47a72.41 72.41 0 01-4.47-9.38c-2.99-8.45-5.29-15.92-6.83-21.11z" fill="#ffa8a7"/><path d="M106.74 158.76c6.17.06 12.25 1.45 14.34 8 2 6.42 4.68 25 4.68 25s-2.6 3.44-11.26 2.88z" fill="#fd0"/><path d="M106.74 158.76c6.17.06 12.25 1.45 14.34 8 2 6.42 4.68 25 4.68 25s-2.6 3.44-11.26 2.88z" fill="#fd0"/><path d="M106.74 158.76c6.17.06 12.25 1.45 14.34 8 2 6.42 4.68 25 4.68 25s-2.6 3.44-11.26 2.88z" opacity=".1"/><path d="M94.06 159.13c-4.34 1-9.35 1.9-13.55 4-2.92 1.43 1.27 25.63 1.27 25.63l-2 24.7c5.76 6.27 27.8 9.19 40.37 0v-40c0-6.4-3.55-14.08-13.36-14.65z" fill="#fd0"/><path fill="#fd0" d="M81.76 188.24l3.8-10.49-4.44 18.86.64-8.37z"/><path opacity=".2" d="M81.76 188.24l3.8-10.49-4.44 18.86.64-8.37z"/><path d="M87.22 136.88l2.72 10.74a5.18 5.18 0 005 3.91h3.18v-15z" fill="#263238"/><circle cx="109.07" cy="132.94" r="11.51" transform="rotate(-7.04 109.07 132.93)" fill="#263238"/><path d="M91.3 126.4a4.35 4.35 0 00-3.62 1.28c-1.56 1.58-1.23 4.53 0 11.29l4.81.55z" fill="#263238"/><path d="M93.55 139.53c-.71.42-1.73-.95-2.61-1.87s-3.75-2.18-5.18.84.82 7.14 3 8a3.34 3.34 0 004.43-1.41l.86 14a12.55 12.55 0 009.46 7.18c6.91.93 5.49-4.76 3.22-7.55v-4.28a21.38 21.38 0 005.25.27c2.52-.47 3.76-2.81 5-5.8 1.77-4.47 2.86-10.79 1.33-18.81-2-10.62-13.79-10.85-20.53-6.6s-4.23 16.03-4.23 16.03z" fill="#ffa8a7"/><path d="M93.55 140.73c-.36 0-1.72-2.26-2.61-3.07-1.23-1.12.36-11.26.36-11.26.62-8.31 12.88-8.94 16.27-9.18 7.76-.56 13 3.74 10.93 9.15-1.4 2.46-4.27 3.14-7 3.46-4.57.56-12.34-1.89-13.32-2-1.32-.19-1.6 1.1-2.32 4.6-.58 3.06-1.1 8.27-2.31 8.3z" fill="#263238"/><path d="M91.31 127.19L87 124.88a2.38 2.38 0 013.27-1.08 2.57 2.57 0 011.04 3.39z" fill="#263238"/><path d="M106.73 154.48s-6.4-1.29-8.63-2.48a7.4 7.4 0 01-3.1-3 10.07 10.07 0 001.76 3.6c1.64 2.09 10 3.63 10 3.63z" fill="#f28f8f"/><path d="M106.93 139.29a1.28 1.28 0 11-1.28-1.33 1.3 1.3 0 011.28 1.33zM105.57 134.45l-2.74 1.55a1.65 1.65 0 01.64-2.19 1.54 1.54 0 012.1.64z" fill="#263238"/><path d="M106.15 147.86l2.92 1.1a1.53 1.53 0 01-2 1 1.64 1.64 0 01-.92-2.1z" fill="#f28f8f"/><path d="M117.69 135.52l-2.5-1.93a1.53 1.53 0 012.18-.33 1.66 1.66 0 01.32 2.26zM116.93 138.55a1.28 1.28 0 11-1.28-1.33 1.3 1.3 0 011.28 1.33z" fill="#263238"/><path fill="#f28f8f" d="M111.55 138.77l-1.2 7.63 4.22-.5-3.02-7.13z"/><path d="M89.84 158.87s9.7 4.31 10.74 19.21c2.19 31.16-21.27 38.33-21.27 38.33-2-3.93-.39-9.24 1.25-13a25.82 25.82 0 0011.67-23.11c-.54-11.36-6.18-17.72-9-18.58a19 19 0 016.61-2.85z" fill="#37474f"/><path d="M71.61 217.3c4.2-1.47 5.25-2 10.54-6.27s9.77-9.94 14-15.56a14.66 14.66 0 011.69-1.83 17.17 17.17 0 002.86-3.24c1.85-2.81 1.88-4.64 2.06-8a28.25 28.25 0 00-1.39-10 2.74 2.74 0 00-.47-1 1 1 0 00-1-.35 1.42 1.42 0 00-.69.64c-1.18 1.8-2 3.81-3.17 5.64-.53.83-.9 1.16-1.38 2-.06.1-1 1.06-1.18.64s.4-1.73.19-3.85-.79-2.88-1.44-3.05c-1-.26-1 .86-1.45 2.55-.51 2-1.29 3.66-1.2 6.63a18.29 18.29 0 01-.88 6c-.57 2.29-3.18 7.45-9.64 11.43-1.41.87-1.86 1-1-2.37a100.52 100.52 0 016.06-18.53c2.58-5.87 4.36-10.36 2-12.75-4.13-4.1-9.92-1.76-13.15 5.22-3.73 8.06-5.77 14.18-7.27 29-.7 6.44-1.32 19.58 5.91 17.05z" fill="#ffa8a7"/><path d="M83.67 161.88c-4.88.22-8.13 2.19-11.36 8.56S66.6 188 66.6 188s4.59 4.89 13.5 4.64c0 0 5.6-14.68 6.67-18.63 1.17-4.31.15-10.65-3.1-12.13z" fill="#fd0"/></g></svg>