<?xml version="1.0"?>
<svg xmlns="http://www.w3.org/2000/svg" id="Layer_1" data-name="Layer 1" viewBox="0 0 512 512" width="512px" height="512px" class=""><g><polygon points="475.77 424.89 496 489.71 255.8 489.71 255.8 424.89 475.77 424.89" style="fill:#FFF4AF" data-original="#E48E66" class="" data-old_color="#E48E66"/><polygon points="339.54 296.37 435.65 296.37 475.77 424.89 255.8 424.89 255.8 489.71 16 489.71 81.94 296.37 193.03 296.37 257.4 382.43 322.33 295.62 323.33 296.37 339.54 296.37" style="fill:#FFDD00" data-original="#F8EC7D" class="" data-old_color="#F8EC7D"/><path d="M193.03,296.37l-41.8-55.88c-19.56-26.82-30.74-59.23-28.5-92.76C127.2,79,181.96,18.1,257.4,18.1S387.59,79,392.07,147.73c2.23,32.97-8.39,65.94-28.5,92.76l-41.24,55.13L257.4,382.43ZM354.18,155.72A98.18,98.18,0,1,0,256,253.9,98.184,98.184,0,0,0,354.18,155.72Z" style="fill:#FFF4AF" data-original="#E48E66" class="" data-old_color="#E48E66"/><path d="M330.82,144.13,300.4,156.8l-32.46,13.51c-6.67,2.78-17.58,2.78-24.24,0L210.29,156.4l-29.47-12.27,75-31.23Z" style="fill:#FB8C15" data-original="#6FE3FF" class="" data-old_color="#6FE3FF"/><path d="M256,57.54a98.18,98.18,0,1,1-98.18,98.18A98.184,98.184,0,0,1,256,57.54Zm44.4,99.26,30.42-12.67-75-31.23-75,31.23,29.47,12.27-.12.29v33.06h3.24c19.08,0,37.28,25.15,41.88,25.15,4.47,0,22.79-25.15,41.34-25.15h3.86V157.02Z" style="fill:#FFDD00" data-original="#F8EC7D" class="" data-old_color="#F8EC7D"/><path d="M300.49,157.02v32.73h-3.86c-18.55,0-36.87,25.15-41.34,25.15-4.6,0-22.8-25.15-41.88-25.15h-3.24V156.69l.12-.29,33.41,13.91c6.66,2.78,17.57,2.78,24.24,0L300.4,156.8Z" style="fill:#BCBCBC" data-original="#CC7350" class="active-path" data-old_color="#CC7350"/><path d="M333.126,138.591l-75-31.23a6,6,0,0,0-4.613,0l-75,31.23a6,6,0,0,0,0,11.078l25.656,10.682v29.4a6,6,0,0,0,6,6h3.24c10.471,0,21.815,10.349,29.321,17.2,5.622,5.128,8.719,7.953,12.559,7.953,3.806,0,6.708-2.661,12.489-7.962,7.464-6.844,18.743-17.188,28.851-17.188h3.86a6,6,0,0,0,6-6V160.759l4.96-2.065V175.41a6,6,0,1,0,12,0V153.7l9.677-4.029a6,6,0,0,0,0-11.078ZM255.82,119.4l59.393,24.732-49.582,20.64c-5.23,2.18-14.4,2.181-19.625,0l-33.41-13.91-16.167-6.731Zm38.67,64.436c-13.921,1.094-26.416,12.551-34.822,20.259-1.454,1.334-3.138,2.878-4.4,3.937-1.276-1.058-2.977-2.61-4.445-3.949-8.331-7.6-20.66-18.848-34.649-20.2V165.347l25.219,10.5a42.392,42.392,0,0,0,28.857,0l24.244-10.094Z" style="fill:#1C1C1C" data-original="#63316D" class="" data-old_color="#63316D"/><path d="M441.377,294.582a6,6,0,0,0-5.727-4.212h-101.9l34.617-46.28c21.431-28.581,31.973-62.946,29.687-96.75A147.44,147.44,0,0,0,355.6,52.911a138.551,138.551,0,0,0-196.4,0,147.4,147.4,0,0,0-42.453,94.42c-2.212,33.114,8.314,67.454,29.682,96.753l34.622,46.286H81.94a6,6,0,0,0-5.679,4.064L10.321,487.773A6,6,0,0,0,16,495.71H496a6,6,0,0,0,5.728-7.787Zm7.394,63.958H355.566l-8.989-56.17h84.66ZM128.717,148.12a135.418,135.418,0,0,1,38.989-86.749,126.552,126.552,0,0,1,179.38,0,135.446,135.446,0,0,1,39,86.765c2.094,30.952-7.606,62.472-27.318,88.76l-41.24,55.13L257.4,372.412,156.078,236.955C136.409,209.985,126.692,178.44,128.717,148.12ZM86.233,302.37h103.79L252.6,386.023a6,6,0,0,0,9.61,0l62.572-83.653h9.647l10.1,63.118a6,6,0,0,0,5.925,5.052H452.516l15.092,48.35H255.8a6,6,0,0,0-6,6v58.82H180.236l5.484-97.031a6,6,0,0,0-5.99-6.339H59.641ZM55.548,392.34H173.381l-5.164,91.37H24.386ZM261.8,483.71V430.89H471.354l16.488,52.82Z" style="fill:#1C1C1C" data-original="#63316D" class="" data-old_color="#63316D"/><path d="M360.18,155.72A104.18,104.18,0,1,0,256,259.9,104.3,104.3,0,0,0,360.18,155.72ZM256,247.9a92.18,92.18,0,1,1,92.18-92.18A92.285,92.285,0,0,1,256,247.9Z" style="fill:#1C1C1C" data-original="#63316D" class="" data-old_color="#63316D"/></g> </svg>
