<?xml version="1.0"?>
<svg xmlns="http://www.w3.org/2000/svg" id="Layer_1" data-name="Layer 1" viewBox="0 0 512 512" width="512px" height="512px" class=""><g><polygon points="475.77 424.89 496 489.71 255.8 489.71 255.8 424.89 475.77 424.89" style="fill:#FFEC75" data-original="#E48E66" class="" data-old_color="#E48E66"/><polygon points="339.54 296.37 435.65 296.37 475.77 424.89 255.8 424.89 255.8 489.71 16 489.71 81.94 296.37 193.03 296.37 257.4 382.43 322.33 295.62 323.33 296.37 339.54 296.37" style="fill:#FFDD00" data-original="#F8EC7D" class="" data-old_color="#F8EC7D"/><path d="M193.03,296.37l-41.8-55.88c-19.56-26.82-30.74-59.23-28.5-92.76C127.2,79,181.96,18.1,257.4,18.1S387.59,79,392.07,147.73c2.23,32.97-8.39,65.94-28.5,92.76l-41.24,55.13L257.4,382.43ZM354.18,155.72A98.18,98.18,0,1,0,256,253.9,98.184,98.184,0,0,0,354.18,155.72Z" style="fill:#FFEC75" data-original="#E48E66" class="" data-old_color="#E48E66"/><path d="M256,57.54a98.18,98.18,0,1,0,98.18,98.18A98.184,98.184,0,0,0,256,57.54Z" style="fill:#FFDD00" data-original="#F8EC7D" class="" data-old_color="#F8EC7D"/><path d="M317.45,181.41a6,6,0,0,1-6-6v-25.6a6,6,0,0,1,12,0v25.6A6,6,0,0,1,317.45,181.41Z" style="fill:#FFEC75" data-original="#E48E66" class="" data-old_color="#E48E66"/><path d="M300.49,189.75h-3.86c-18.55,0-36.87,25.15-41.34,25.15-4.6,0-22.8-25.15-41.88-25.15h-3.24V156.69l.12-.29,90.11.4.09.22Z" style="fill:#FFEC75" data-original="#E48E66" class="" data-old_color="#E48E66"/><path d="M330.82,144.13,300.4,156.8l-32.46,13.51c-6.67,2.78-17.58,2.78-24.24,0L210.29,156.4l-29.47-12.27,75-31.23Z" style="fill:#FF971B" data-original="#6FE3FF" class="active-path" data-old_color="#6FE3FF"/></g> </svg>
